<?xml version="1.0" encoding="utf-8"?>
<!-- Generator: Adobe Illustrator 27.3.1, SVG Export Plug-In . SVG Version: 6.00 Build 0)  -->
<svg version="1.1" id="Layer_1" xmlns="http://www.w3.org/2000/svg" xmlns:xlink="http://www.w3.org/1999/xlink" x="0px" y="0px"
	 viewBox="0 0 482 482" style="enable-background:new 0 0 482 482;" xml:space="preserve">
<style type="text/css">
	.st0{fill:#E9F3E6;}
	.st1{fill-rule:evenodd;clip-rule:evenodd;fill:#F16D6C;}
</style>
<g>
	<path class="st0" d="M365.75,55.38c35.86,16.95,74.66,33.26,91.29,62.27c16.63,28.69,11.41,70.42,10.43,111.18
		c-0.65,41.08,2.61,81.51-13.69,111.18c-16.3,29.67-52.17,48.58-87.38,65.21c-34.89,16.63-69.12,31.3-109.87,42.38
		c-40.43,11.09-87.7,18.91-121.94,1.63c-34.56-16.95-56.4-58.69-78.25-99.44c-21.52-40.75-43.36-80.53-43.36-120.31
		c0.33-39.45,22.17-79.23,51.84-106.61c29.34-27.39,66.19-42.71,100.42-60.64c34.56-17.61,66.19-38.15,98.79-39.45
		C296.31,21.14,329.89,38.75,365.75,55.38z"/>
</g>
<g>
	<path class="st1" d="M317.43,233.16c-0.17-10.31-0.36-21.36-0.4-33.2c-5.9-2.95-11.53-6.44-16.8-10.41
		c-9.95-7.56-21.89-19.8-21.89-35.92c0-14.36,10.86-28.68,27-28.68c7.49,0,13.55,2.99,18.13,7.46c4.57-4.47,10.64-7.46,18.14-7.46
		c16.14,0,26.99,14.33,26.99,28.68c0,15.62-12,27.87-21.85,35.48c-5.29,4.06-10.92,7.65-16.83,10.75
		c0.04,11.24,0.22,21.98,0.39,32.14c0.39,22.27,0.71,41.8-0.64,57.93c-2.05,24.42-8.1,44.02-26.21,54.63
		c-17.8,10.42-44.1,14.35-65.89,11.7c-10.93-1.33-21.37-4.38-29.27-9.66c-5.74-3.84-10.3-9-12.44-15.47
		c-13.39-0.61-26.71-3.06-37.24-7.43c-11.38-4.72-22.11-12.89-22.11-25.69V170.87h0.02c-0.01-0.26-0.02-0.52-0.02-0.79
		c0-17.8,28.86-32.23,64.47-32.23s64.47,14.43,64.47,32.23c0,0.26-0.01,0.53-0.02,0.79h0.02v38.35
		c10.74,1.55,20.56,6.92,27.66,15.13c7.1,8.2,11.01,18.69,11.01,29.55c0,10.85-3.91,21.34-11.02,29.54
		c-7.1,8.2-16.93,13.57-27.67,15.12c-0.3,12.99-10.68,21.21-22.14,25.88c-9.48,3.86-21.15,5.98-33.07,6.61
		c1.29,1.73,3.03,3.33,5.25,4.8c5.61,3.75,13.86,6.39,23.66,7.58c19.67,2.39,42.98-1.34,57.82-10.03
		c12.32-7.22,17.89-20.98,19.87-44.57C318.12,273.36,317.8,254.92,317.43,233.16z M252.53,298.57c-0.28,5.02-4.34,9.96-14.09,13.93
		c-9.83,4-23.41,6.02-37.39,5.86c-1.98-0.02-3.96-0.09-5.93-0.2V202.19c1.93,0.08,3.89,0.13,5.86,0.13
		c21.09,0,39.81-5.06,51.58-12.89v19.79c-10.75,1.55-20.57,6.91-27.68,15.12c-7.11,8.2-11.02,18.7-11.03,29.55
		c0,10.86,3.91,21.35,11.01,29.56C231.96,291.65,241.79,297.02,252.53,298.57z M252.55,170.08c0,1.39-1.46,6.11-11.75,11.26
		c-9.53,4.76-23.59,8.08-39.82,8.08s-30.3-3.32-39.82-8.08c-10.3-5.15-11.75-9.88-11.75-11.26c0-1.39,1.46-6.11,11.75-11.26
		c9.53-4.76,23.59-8.08,39.82-8.08s30.3,3.32,39.82,8.08C251.09,163.97,252.55,168.7,252.55,170.08z M249.33,257.12l9.67-32.23
		l9.67,32.23L259,270.01L249.33,257.12z"/>
</g>
</svg>
