<?xml version="1.0" encoding="utf-8"?>
<!-- Generator: Adobe Illustrator 27.3.1, SVG Export Plug-In . SVG Version: 6.00 Build 0)  -->
<svg version="1.1" id="Layer_1" xmlns="http://www.w3.org/2000/svg" xmlns:xlink="http://www.w3.org/1999/xlink" x="0px" y="0px"
	 viewBox="0 0 509.24 473.8" style="enable-background:new 0 0 509.24 473.8;" xml:space="preserve">
<style type="text/css">
	.st0{fill:#FF6E6B;}
	.st1{opacity:0.3;}
	.st2{fill:#FFB6B6;}
	.st3{fill:#FFFFFF;}
	.st4{fill:#2F2E41;}
	.st5{fill:#9EFFBB;}
	.st6{fill:none;stroke:#000000;stroke-miterlimit:10;}
</style>
<g>
	<path class="st0" d="M359.73,64.18c45.81,25.07,93.79,51.38,116.69,91.93c23.21,40.55,21.36,95.02,2.79,139.59
		c-18.88,44.26-54.79,78-94.09,90.38c-39.31,12.38-82.33,3.1-119.17,13s-67.48,38.69-110.19,52.31
		c-42.4,13.31-97.19,11.14-106.79-19.5c-9.29-30.33,26.62-89.14,21.36-140.83c-5.57-51.69-52-95.95-54.48-132.48
		c-2.48-36.52,39-65.31,81.4-91.93c42.71-26.93,86.05-51.69,129.69-52C270.28,14.35,313.92,38.8,359.73,64.18z"/>
</g>
<ellipse class="st1" cx="394.74" cy="338.08" rx="38.5" ry="4"/>
<g>
	<path class="st2" d="M396.06,196.29c-1.37-1.5-1.3-3.81,0.16-5.22c0.14-0.14,0.3-0.26,0.47-0.37l-3.15-12.67l5.87-3.86l2.44,17.82
		c0.83,1.48,0.55,3.33-0.67,4.51c-1.43,1.36-3.69,1.29-5.05-0.14l0,0C396.11,196.33,396.09,196.31,396.06,196.29z"/>
	<path class="st3" d="M402.22,183.79l-7.69,0.71l-11.42-40.18c-0.03-0.11-3.42-11.4-6.83-13.16c-1.27-0.66-1.74-1.05-1.72-1.45
		c0.02-0.41,0.54-0.62,1.25-0.91c0.72-0.26,1.4-0.61,2.02-1.06c1.56-1.23,0.87-2.42-0.07-4.06c-0.18-0.32-0.38-0.65-0.56-1
		c-0.54-1.02,0.06-5.37,1.8-12.93c1.06-4.64,4.99-8.07,9.73-8.48l0,0c6.04-0.54,11.38,3.92,11.92,9.96
		c0.01,0.09,0.02,0.18,0.02,0.27l1.5,23.27L402.22,183.79z"/>
	<polygon class="st2" points="371.81,326.29 366.57,326.24 364.25,305.55 371.99,305.62 	"/>
	<path class="st4" d="M354.79,335.42c-0.01,1.32,1.05,2.4,2.37,2.18h10.64l1.86-3.45l0.68,4.39h4.01l-1.01-14.1l-1.4-0.09l-5.7-0.39
		l-1.81-0.12v3.83l-8.61,5.8C355.19,333.9,354.8,334.64,354.79,335.42z"/>
	<polygon class="st2" points="428.28,323 423.16,324.57 414.53,305.15 422.08,302.83 	"/>
	<path class="st4" d="M414.5,336.29c0.39,1.26,1.73,1.97,2.99,1.58l10.17-3.13l0.64-4.16l1.8,3.41l3.84-1.18l-5.05-12.6l-1.36,0.33
		l-5.55,1.35l-1.79,0.44l1.13,3.66l-6.4,8.11C414.43,334.72,414.27,335.54,414.5,336.29z"/>
	<path class="st5" d="M351.55,188.95c-0.3,2.55,0.99,117.8,7.94,122.3c6.95,4.49,22.98,9.49,21.71,2.9
		c-1.28-6.58-0.81-87.86-0.81-87.86s34.1,86.54,36.43,86.57c2.33,0.03,18.99-6.23,18.22-9.23c-0.77-3-28.18-78.19-28.98-81.02
		l-1.52-4.9c-0.27-0.87-0.42-1.76-0.46-2.67c-0.14-3.21-0.4-8.36-0.4-8.36s-1.47-27.34-11.74-42.44l-0.88-8.97l-28.02-5.03
		l-10.21,29.68l-0.34,2.38L351.55,188.95z"/>
	<path class="st3" d="M386.68,92.62l-13.54,1.93l-0.82,9.81l-6.68,10.45c0,0-14.86,10.45-4.49,26.97l-0.67,9.16l33.51,13.48
		l3.22-58.75L386.68,92.62z"/>
	<path class="st2" d="M363.97,199.67c-0.89-1.82-0.16-4.02,1.64-4.96c0.18-0.09,0.36-0.16,0.55-0.22l0.58-13.04l6.72-2.03
		l-2.73,17.78c0.37,1.65-0.42,3.35-1.92,4.13c-1.76,0.89-3.91,0.19-4.8-1.57l0,0C364,199.73,363.99,199.7,363.97,199.67z"/>
	<path class="st3" d="M372.97,189.43l-7.58-1.5l0.48-41.77c0-0.12-0.03-11.9-2.81-14.56c-1.03-0.99-1.37-1.5-1.24-1.88
		c0.14-0.39,0.69-0.44,1.46-0.52c0.76-0.04,1.52-0.19,2.24-0.45c1.84-0.74,1.53-2.07,1.08-3.92c-0.09-0.36-0.18-0.73-0.25-1.12
		c-0.23-1.14,1.59-5.13,5.4-11.88c2.33-4.15,7.08-6.31,11.74-5.37l0,0c5.95,1.2,9.8,6.99,8.6,12.94c-0.02,0.09-0.04,0.18-0.06,0.27
		l-5.18,22.74L372.97,189.43z"/>
	<circle class="st2" cx="378.55" cy="77.13" r="15.13"/>
	<path class="st4" d="M398.61,98.12c2.03,2.91,3.39,6.23,3.98,9.73c-1.64,1.05-3.54,1.6-5.49,1.58c-0.07-0.25-0.13-0.51-0.21-0.76
		c-0.56-1.97-1.4-3.85-2.49-5.59c0.15,1.87-0.1,3.76-0.74,5.52c-1.03-0.47-2.13-0.75-3.25-0.84c-0.92,0-1.82,0.21-2.64,0.62
		c-0.95-3.16-1.83-6.06-2.45-8.14c-0.02,5.22-7.67,9.77-16.02,9.11c-0.3-0.19,2.72-8.77,2.43-8.97c-0.67-0.44-1.32-0.92-1.97-1.39
		c2.73-4.22,5.7-8.75,5.19-9.43c0.04,0.84-2.96,4.87-6.22,8.68c-1.81-1.33,8.47-22.95,3.39-24.7c-0.08,0.76-1.21,0.76-2.57,0.6
		c-0.36-1.26-0.9-2.46-1.59-3.57c0.09,1.12-0.04,2.24-0.4,3.31c-1.35,0-2.7,0.14-4.02,0.42c-0.31-0.48-0.64-0.94-1.01-1.38
		c0.04,0.53,0.02,1.06-0.05,1.59c-0.93,0.11-1.82,0.41-2.62,0.9c-1.06-0.39,0.74-2.13,0.08-3.03c-1.68-2.26,0.81-5.56,2.38-7.9
		c3.51-4.86,10.06-6.38,15.35-3.57c0.23-0.78,1.39-1.3,2.87-1.65c0.63-0.14,1.28-0.2,1.92-0.18c6.41,0.11,15.31,5.4,15.66,11.8
		c0.03,0.64,0.08,1.34,0.12,2.08c0.45,7.16-0.1,13.77,4.79,19.01c1.77,1.89,1.79,10.87,1.11,15.49
		C402.4,105.61,401.15,98.39,398.61,98.12z"/>
</g>
<path class="st3" d="M311.24,267.08h-222c-8.28,0-15-6.72-15-15v-153c0-8.28,6.72-15,15-15h222c8.28,0,15,6.72,15,15v153
	C326.24,260.37,319.52,267.08,311.24,267.08z"/>
<path class="st0" d="M140.86,113h-9.16c-0.76,0-1.38-0.62-1.38-1.38v-9.16c0-0.76-0.62-1.38-1.38-1.38h-14.92
	c-0.76,0-1.38,0.62-1.38,1.38v9.16c0,0.76-0.62,1.38-1.38,1.38h-9.16c-0.76,0-1.38,0.62-1.38,1.38v14.92c0,0.76,0.62,1.38,1.38,1.38
	h9.16c0.76,0,1.38,0.62,1.38,1.38v9.16c0,0.76,0.62,1.38,1.38,1.38h14.92c0.76,0,1.38-0.62,1.38-1.38v-9.16
	c0-0.76,0.62-1.38,1.38-1.38h9.16c0.76,0,1.38-0.62,1.38-1.38v-14.92C142.24,113.61,141.62,113,140.86,113z"/>
<g>
	<path d="M296.24,195.79v6.86l-1.42-1.44c-2.86-2.9-5.64-4.13-9.3-4.13c-0.78,0-1.5,0.06-2.19,0.18c-0.74,0.12-1.44,0.31-2.1,0.55
		c-0.32,0.12-0.64,0.25-0.95,0.41c-0.61,0.28-1.19,0.62-1.74,1.01c-0.09,0.06-0.18,0.13-0.27,0.2c-0.53,0.38-1.04,0.81-1.53,1.29
		c-0.25,0.22-0.49,0.46-0.72,0.7c-0.47,0.48-0.92,0.99-1.37,1.52c-0.84,0.99-1.66,2.06-2.5,3.16c-3.95,5.15-8.43,10.98-17.35,10.98
		c-6.06,0-10.07-2.7-13.25-6.04c-0.51-0.53-1-1.08-1.47-1.64c-0.24-0.28-0.47-0.56-0.69-0.85c-0.49-0.58-0.95-1.17-1.4-1.76
		c-0.09-0.11-0.17-0.23-0.26-0.34c-0.09-0.12-0.18-0.23-0.27-0.35c-0.33-0.43-0.66-0.86-0.99-1.28c-0.21-0.27-0.42-0.54-0.63-0.8
		c-0.43-0.55-0.87-1.07-1.31-1.58c-2.72-3.11-5.71-5.36-10.44-5.36c-0.78,0-1.51,0.06-2.2,0.18c-0.74,0.12-1.43,0.31-2.09,0.55
		c-0.33,0.12-0.64,0.25-0.95,0.41c-0.62,0.28-1.19,0.63-1.75,1.02c-2.4,1.67-4.31,4.16-6.38,6.86c-0.77,1-1.55,2.03-2.4,3.03
		c-0.42,0.51-0.85,1.02-1.32,1.51c-0.21,0.24-0.44,0.48-0.67,0.71c-0.46,0.48-0.95,0.94-1.45,1.38c-2.9,2.52-6.5,4.35-11.5,4.35
		c-6.07,0-10.08-2.7-13.27-6.04c-0.51-0.53-1-1.08-1.46-1.64c-0.24-0.28-0.47-0.56-0.7-0.84c-0.48-0.59-0.94-1.18-1.38-1.77
		c-0.19-0.23-0.36-0.46-0.54-0.69c-2.92-3.82-5.54-7.22-9.68-8.49c-0.71-0.22-1.46-0.38-2.27-0.45c-0.4-0.05-0.82-0.07-1.25-0.08
		h-0.17c-0.78,0-1.5,0.06-2.19,0.18c-0.15,0.02-0.3,0.05-0.44,0.08c-0.58,0.12-1.13,0.27-1.66,0.47c-0.32,0.12-0.64,0.25-0.95,0.41
		c-0.61,0.28-1.19,0.62-1.74,1.01c-2.41,1.68-4.32,4.17-6.39,6.87c-1.54,2.01-3.16,4.13-5.1,5.95c-0.97,0.92-2.02,1.77-3.18,2.5
		c-0.59,0.37-1.22,0.71-1.87,1.01c-1.39,0.64-2.92,1.11-4.64,1.35c-0.81,0.11-1.66,0.17-2.55,0.17c-6.06,0-10.07-2.7-13.26-6.04
		c-0.51-0.53-1-1.08-1.47-1.64c-0.23-0.28-0.46-0.56-0.69-0.84c-0.48-0.59-0.94-1.18-1.38-1.77c-0.19-0.23-0.36-0.46-0.54-0.69
		c-3.71-4.84-6.92-9.02-13.37-9.02v-5c3.34,0,6.06,0.82,8.36,2.12c0.03,0.01,0.06,0.02,0.08,0.04c3.79,2.17,6.45,5.62,8.9,8.82
		c0.46,0.6,0.91,1.19,1.36,1.76c0.42,0.53,0.84,1.05,1.27,1.55c0.21,0.26,0.43,0.5,0.65,0.74c0.46,0.52,0.94,1,1.43,1.45
		c1.42,1.32,2.98,2.36,4.85,2.96c0,0,0,0,0.01,0c0.75,0.24,1.54,0.4,2.4,0.49c0.45,0.05,0.92,0.07,1.4,0.07
		c1.02,0,1.95-0.1,2.82-0.29c4.65-1.04,7.42-4.65,10.55-8.73c2.02-2.63,4.18-5.45,7-7.57c0.55-0.4,1.12-0.79,1.72-1.14
		c0.29-0.17,0.59-0.34,0.9-0.5c0.63-0.32,1.29-0.6,1.99-0.84c1.69-0.59,3.58-0.93,5.73-0.93c0.73,0,1.44,0.04,2.11,0.12
		c0.89,0.09,1.74,0.26,2.54,0.47c0.39,0.11,0.78,0.23,1.15,0.36c0.76,0.27,1.47,0.58,2.15,0.94c4.06,2.14,6.84,5.76,9.4,9.09
		c0.45,0.59,0.9,1.18,1.35,1.75c0.42,0.54,0.85,1.06,1.28,1.56c0.21,0.26,0.43,0.5,0.65,0.74c0.46,0.51,0.94,1,1.43,1.45
		c2.28,2.12,4.93,3.52,8.66,3.52c3.31,0,5.77-1.11,7.88-2.84c0.51-0.42,1-0.87,1.48-1.36c0.23-0.23,0.46-0.47,0.68-0.72
		c0.45-0.48,0.88-1,1.31-1.53c0.67-0.81,1.33-1.66,2-2.54c2.03-2.65,4.19-5.48,7.02-7.6c0.54-0.41,1.11-0.79,1.71-1.14
		c0.3-0.18,0.6-0.34,0.91-0.49c0.63-0.33,1.29-0.61,1.98-0.85c1.69-0.59,3.59-0.93,5.74-0.93c6.23,0,10.29,2.85,13.52,6.32
		c0.47,0.49,0.91,1,1.34,1.52c0.22,0.26,0.44,0.52,0.65,0.79c0.43,0.54,0.86,1.08,1.27,1.62c0.19,0.24,0.37,0.49,0.56,0.73
		c0.46,0.6,0.91,1.19,1.35,1.76c0.43,0.53,0.85,1.05,1.28,1.55c0.22,0.26,0.44,0.51,0.66,0.75c0.46,0.51,0.93,0.99,1.42,1.44
		c2.28,2.12,4.93,3.52,8.66,3.52c6.44,0,9.65-4.17,13.36-8.99c1.05-1.38,2.15-2.8,3.35-4.15c0.44-0.5,0.9-0.98,1.38-1.45
		c0.24-0.24,0.48-0.47,0.73-0.68c0.48-0.46,0.99-0.88,1.52-1.28c0.01-0.01,0.02-0.02,0.04-0.04c0.55-0.4,1.12-0.79,1.72-1.14
		c0.29-0.17,0.59-0.34,0.9-0.5c0.63-0.31,1.29-0.6,1.98-0.84c1.69-0.59,3.58-0.93,5.74-0.93
		C289.6,192.08,293.05,193.26,296.24,195.79z"/>
	<path d="M296.24,198.43v1.37c-2.72-2.75-5.94-4.72-10.72-4.72c-1.3,0-2.48,0.15-3.57,0.41c-0.72,0.18-1.39,0.4-2.03,0.68
		c-0.32,0.13-0.64,0.28-0.94,0.45c-0.6,0.31-1.17,0.66-1.72,1.06c-0.07,0.04-0.15,0.1-0.22,0.16c-0.53,0.39-1.04,0.82-1.53,1.28
		c-0.25,0.22-0.49,0.46-0.73,0.7c-0.47,0.48-0.92,0.97-1.37,1.49c-0.97,1.13-1.9,2.34-2.85,3.57c-3.85,5.02-7.83,10.2-15.76,10.2
		c-5.01,0-8.45-2.08-11.27-4.88c-0.5-0.49-0.98-1.01-1.44-1.54c-0.23-0.26-0.45-0.52-0.67-0.78c-0.45-0.54-0.89-1.09-1.32-1.65
		c-0.36-0.45-0.7-0.9-1.05-1.35c-0.02-0.02-0.04-0.05-0.05-0.07c-0.42-0.55-0.84-1.09-1.27-1.63c-0.21-0.27-0.42-0.54-0.64-0.81
		c-0.43-0.53-0.87-1.05-1.33-1.55c-2.92-3.27-6.32-5.74-11.67-5.74c-1.3,0-2.49,0.15-3.58,0.42c-0.72,0.17-1.39,0.4-2.03,0.68
		c-0.32,0.13-0.63,0.28-0.93,0.44c-0.6,0.31-1.17,0.66-1.72,1.06c-2.59,1.85-4.61,4.48-6.7,7.2c-0.76,0.99-1.52,1.98-2.32,2.94
		c-0.42,0.51-0.86,1.01-1.31,1.5c-0.22,0.24-0.44,0.48-0.68,0.71c-0.47,0.48-0.96,0.94-1.47,1.35c-2.58,2.19-5.7,3.7-9.97,3.7
		c-5.02,0-8.46-2.08-11.28-4.88c-0.5-0.49-0.98-1-1.44-1.53c-0.23-0.26-0.46-0.52-0.68-0.79c-0.45-0.54-0.88-1.09-1.32-1.64
		c-0.34-0.45-0.69-0.91-1.04-1.36c-2.82-3.68-5.54-7.21-9.68-8.85c-0.69-0.27-1.42-0.49-2.2-0.65c-0.39-0.08-0.78-0.14-1.19-0.19
		c-0.6-0.07-1.23-0.11-1.89-0.11c-0.25,0-0.5,0.01-0.74,0.01c-1.01,0.05-1.95,0.19-2.83,0.4c-0.72,0.18-1.39,0.4-2.03,0.68
		c-0.32,0.13-0.64,0.28-0.94,0.45c-0.6,0.31-1.17,0.66-1.72,1.06c-2.59,1.84-4.61,4.48-6.7,7.2c-2.17,2.83-4.39,5.72-7.33,7.69
		c-1.08,0.73-2.26,1.33-3.58,1.76c-0.69,0.23-1.41,0.41-2.18,0.54c-0.83,0.14-1.72,0.21-2.66,0.21c-0.82,0-1.59-0.06-2.33-0.16
		c-3.79-0.54-6.59-2.38-8.95-4.73c-0.5-0.49-0.98-1-1.44-1.53c-0.23-0.26-0.45-0.52-0.67-0.79c-0.45-0.54-0.88-1.08-1.32-1.63
		c-0.34-0.45-0.69-0.91-1.04-1.36c-3.87-5.04-7.53-9.8-14.96-9.8v-1c7.92,0,11.9,5.18,15.75,10.2c0.4,0.52,0.8,1.04,1.2,1.55
		c0.42,0.55,0.85,1.08,1.3,1.6c0.21,0.26,0.43,0.52,0.66,0.77c0.46,0.52,0.93,1.02,1.42,1.5c1.62,1.57,3.44,2.87,5.66,3.63
		c1.4,0.48,2.95,0.75,4.72,0.75c0.15,0,0.29,0,0.44-0.01c0.8-0.02,1.55-0.09,2.27-0.22c1.43-0.25,2.7-0.71,3.86-1.32
		c3.44-1.81,5.87-4.97,8.39-8.25c2.05-2.67,4.14-5.39,6.84-7.34c0.54-0.4,1.11-0.77,1.71-1.09c0.3-0.17,0.61-0.32,0.93-0.46
		c0.63-0.29,1.3-0.54,2-0.74c1.29-0.37,2.7-0.57,4.27-0.57c0.06,0,0.12,0,0.18,0.01c0.92,0,1.79,0.08,2.6,0.22
		c0.4,0.07,0.78,0.15,1.16,0.25c0.76,0.2,1.49,0.45,2.17,0.75c4.17,1.83,6.94,5.44,9.65,8.97c0.4,0.52,0.81,1.05,1.21,1.56
		c0.42,0.54,0.85,1.07,1.29,1.59c0.21,0.26,0.43,0.52,0.66,0.77c0.46,0.52,0.93,1.02,1.42,1.5c2.65,2.57,5.79,4.38,10.38,4.38
		c3.96,0,6.84-1.35,9.26-3.38c0.51-0.42,1-0.87,1.47-1.35c0.23-0.23,0.45-0.47,0.68-0.71c0.44-0.49,0.88-0.99,1.31-1.51
		c0.76-0.92,1.49-1.88,2.24-2.85c2.04-2.67,4.13-5.39,6.83-7.35c0.55-0.39,1.12-0.76,1.72-1.08c0.3-0.17,0.6-0.32,0.92-0.46
		c0.63-0.29,1.29-0.54,2-0.74c1.29-0.37,2.71-0.57,4.28-0.57c5.63,0,9.26,2.61,12.28,5.93c0.46,0.5,0.91,1.02,1.34,1.55
		c0.21,0.26,0.43,0.53,0.64,0.79c0.43,0.54,0.85,1.09,1.27,1.64c0.07,0.1,0.15,0.19,0.22,0.29c0.4,0.52,0.81,1.05,1.21,1.56
		c0.42,0.54,0.85,1.07,1.29,1.59c0.21,0.26,0.43,0.52,0.66,0.77c0.46,0.52,0.93,1.02,1.42,1.5c2.65,2.57,5.8,4.38,10.38,4.38
		c7.44,0,11.09-4.76,14.97-9.8c0.98-1.28,1.97-2.56,3.02-3.77c0.45-0.51,0.9-1,1.38-1.47c0.23-0.24,0.47-0.47,0.72-0.69
		c0.49-0.46,1-0.89,1.54-1.28c0.06-0.05,0.12-0.09,0.18-0.13c0.54-0.4,1.11-0.77,1.71-1.09c0.3-0.17,0.61-0.32,0.93-0.46
		c0.63-0.29,1.3-0.54,2-0.74c1.29-0.37,2.7-0.57,4.27-0.57C290.21,194.08,293.52,195.89,296.24,198.43z"/>
</g>
<g>
	<path class="st5" d="M296.24,205.57v5c-10.72-0.22-16.23-7.52-21.1-13.98c-0.16-0.22-0.33-0.44-0.49-0.65
		c-0.41-0.55-0.83-1.1-1.24-1.63c-0.21-0.27-0.41-0.54-0.62-0.8c-0.43-0.54-0.85-1.06-1.28-1.57c-2.47-2.9-5.1-5.27-8.55-6.48
		c-1.03-0.37-2.14-0.62-3.34-0.76c-0.54-0.07-1.1-0.1-1.68-0.11c-0.13-0.01-0.26-0.01-0.4-0.01c-1.09,0-2.11,0.09-3.07,0.26
		c-6.08,1.08-9.73,5.4-13.6,10.49c-0.31,0.41-0.62,0.83-0.94,1.25c-0.1,0.14-0.2,0.27-0.31,0.41c-0.2,0.27-0.41,0.54-0.62,0.82
		c-0.41,0.55-0.84,1.1-1.27,1.64c-0.11,0.14-0.22,0.28-0.34,0.42c-0.56,0.71-1.14,1.41-1.75,2.1c-0.28,0.33-0.58,0.65-0.88,0.97
		c-0.58,0.63-1.19,1.23-1.83,1.81c-3.67,3.36-8.23,5.83-14.6,5.83c-5.72,0-9.99-2-13.45-4.85c-0.53-0.42-1.04-0.87-1.53-1.35
		c-0.24-0.21-0.48-0.44-0.71-0.68c-0.48-0.47-0.94-0.96-1.38-1.46c-1.64-1.82-3.11-3.77-4.52-5.65c-1.19-1.59-2.34-3.12-3.53-4.52
		c-0.44-0.53-0.89-1.03-1.35-1.52c-0.23-0.25-0.46-0.49-0.7-0.72c-0.48-0.48-0.97-0.93-1.47-1.35c-2.8-2.38-6.08-3.9-10.55-3.9
		c-3.44,0-6.17,0.9-8.53,2.39c-0.64,0.41-1.25,0.86-1.84,1.34c-0.28,0.23-0.56,0.47-0.83,0.72c-0.55,0.5-1.07,1.02-1.59,1.58
		c-0.99,1.06-1.94,2.22-2.89,3.44c-0.41,0.53-0.83,1.07-1.25,1.62c-0.2,0.27-0.4,0.54-0.61,0.82c-0.02,0.03-0.05,0.06-0.07,0.09
		c-0.38,0.51-0.77,1.02-1.17,1.54c-4.67,6.14-10.24,12.46-20.42,12.46c-1.98,0-3.78-0.24-5.44-0.67c-1.79-0.46-3.4-1.15-4.88-1.99
		c-0.84-0.48-1.64-1.01-2.39-1.59c-1.69-1.28-3.19-2.76-4.56-4.33c-0.46-0.5-0.89-1.01-1.31-1.53c-0.21-0.26-0.42-0.52-0.62-0.78
		c-0.43-0.52-0.84-1.05-1.24-1.58c-0.39-0.51-0.78-1.02-1.16-1.53c-2.78-3.7-5.35-7.1-8.66-9.34c-0.02-0.02-0.05-0.03-0.08-0.04
		c-2.31-1.56-4.99-2.53-8.36-2.61v-5c10.72,0.22,16.23,7.53,21.1,13.99c0.3,0.4,0.6,0.8,0.9,1.2c0.42,0.54,0.83,1.08,1.24,1.61
		c0.21,0.26,0.41,0.52,0.63,0.78c0.42,0.53,0.85,1.05,1.3,1.55c2.4,2.74,4.98,4.95,8.36,6.07c1.15,0.38,2.39,0.63,3.75,0.74
		c0.46,0.03,0.93,0.05,1.42,0.05c0.15,0,0.29,0,0.43-0.01c1.38-0.03,2.65-0.2,3.82-0.52c5.64-1.46,9.13-5.88,12.94-10.93
		c0.14-0.18,0.27-0.36,0.41-0.54c0.28-0.37,0.55-0.74,0.84-1.11c0.21-0.28,0.42-0.55,0.64-0.83c0.33-0.44,0.67-0.87,1.01-1.3
		c0.08-0.11,0.17-0.21,0.26-0.32c0.52-0.65,1.06-1.3,1.63-1.93c0.29-0.34,0.6-0.67,0.92-1c0.61-0.65,1.25-1.29,1.93-1.89
		c3.63-3.25,8.13-5.62,14.37-5.62c5.98,0,10.36,2.18,13.91,5.24c0.51,0.42,1,0.87,1.48,1.35c0.24,0.23,0.48,0.47,0.7,0.71
		c0.47,0.48,0.92,0.97,1.35,1.47c1.49,1.7,2.84,3.5,4.15,5.23c1.35,1.78,2.64,3.5,4,5.05c0.44,0.52,0.9,1.02,1.37,1.5
		c0.24,0.24,0.47,0.47,0.71,0.69c0.49,0.46,0.99,0.9,1.51,1.31c2.68,2.12,5.83,3.45,10.01,3.45c3.71,0,6.6-1.04,9.08-2.75
		c0.59-0.41,1.17-0.86,1.72-1.35c0.27-0.22,0.53-0.46,0.79-0.73c0.52-0.48,1.02-1,1.52-1.54c1.05-1.16,2.06-2.43,3.09-3.77
		c0.4-0.53,0.81-1.07,1.23-1.62c0.06-0.08,0.12-0.16,0.18-0.24c0.14-0.19,0.29-0.38,0.43-0.57c0.4-0.53,0.82-1.07,1.24-1.61
		c4.58-5.93,10.09-11.82,19.93-11.82c2.03,0,3.87,0.25,5.56,0.7c1.55,0.41,2.98,1,4.29,1.71c0.71,0.38,1.38,0.79,2.03,1.25
		c2.04,1.39,3.8,3.1,5.39,4.92c0.12,0.12,0.23,0.24,0.33,0.37c0.45,0.5,0.87,1.02,1.29,1.54c0.21,0.25,0.41,0.51,0.61,0.77
		c0.42,0.53,0.83,1.06,1.23,1.59c0.29,0.38,0.58,0.76,0.86,1.14C283.89,199.89,288.02,205.36,296.24,205.57z"/>
	<path class="st5" d="M296.24,207.57v1c-9.72-0.22-14.69-6.81-19.5-13.19l-0.72-0.96c-0.41-0.54-0.82-1.07-1.24-1.6
		c-0.2-0.26-0.4-0.52-0.61-0.78c-0.42-0.53-0.84-1.04-1.28-1.55c-1.87-2.18-3.87-4.11-6.26-5.52c-1.11-0.66-2.31-1.2-3.61-1.6
		c-0.6-0.19-1.23-0.34-1.88-0.46c-1.12-0.22-2.32-0.33-3.6-0.33h-0.19c-8.61,0.08-13.25,5.25-17.75,11.13
		c-0.42,0.54-0.83,1.09-1.25,1.64c0,0.01-0.01,0.02-0.02,0.03c-0.2,0.27-0.4,0.53-0.6,0.8c-0.42,0.55-0.84,1.09-1.26,1.64
		c-0.56,0.71-1.12,1.42-1.71,2.11c-0.52,0.62-1.06,1.23-1.63,1.82c-0.26,0.29-0.54,0.57-0.83,0.84c-0.57,0.57-1.16,1.1-1.78,1.6
		c-3.17,2.62-7.02,4.39-12.19,4.39c-5.06,0-8.85-1.7-12-4.23c-0.52-0.41-1.02-0.85-1.51-1.32c-0.24-0.22-0.48-0.45-0.71-0.68
		c-0.47-0.48-0.93-0.97-1.37-1.47c-1.57-1.74-2.99-3.63-4.4-5.5c-1.27-1.68-2.52-3.34-3.84-4.88c-0.44-0.51-0.89-1.01-1.35-1.49
		c-0.23-0.24-0.46-0.48-0.7-0.71c-0.47-0.48-0.96-0.93-1.47-1.35c-3.09-2.63-6.78-4.37-11.84-4.37c-4.44,0-7.83,1.35-10.68,3.45
		c-0.64,0.47-1.26,0.98-1.86,1.53c-0.29,0.26-0.58,0.54-0.86,0.82c-0.57,0.57-1.13,1.16-1.66,1.78c-0.65,0.74-1.28,1.51-1.9,2.3
		c-0.43,0.54-0.85,1.08-1.27,1.63c-0.2,0.28-0.41,0.55-0.62,0.83c-0.12,0.15-0.23,0.31-0.35,0.46c-0.3,0.39-0.59,0.78-0.89,1.18
		c-4.64,6.1-9.67,12.02-19.11,12.02c-0.27,0-0.54,0-0.8-0.02c-1.64-0.05-3.14-0.3-4.53-0.69c-0.77-0.22-1.51-0.49-2.22-0.8
		c-1.55-0.67-2.95-1.54-4.24-2.55c-0.01,0-0.01,0-0.01,0c-1.41-1.1-2.69-2.37-3.89-3.74c-0.45-0.5-0.89-1.01-1.3-1.53
		c-0.22-0.25-0.43-0.51-0.62-0.77c-0.42-0.52-0.83-1.04-1.23-1.57c-0.39-0.51-0.78-1.02-1.16-1.53c-4.87-6.46-9.48-12.58-18.7-12.79
		v-1c9.72,0.22,14.69,6.81,19.5,13.19c0.37,0.49,0.73,0.97,1.1,1.45c0.41,0.54,0.81,1.07,1.23,1.59c0.2,0.26,0.41,0.52,0.62,0.77
		c0.42,0.52,0.85,1.03,1.3,1.53c1.67,1.9,3.47,3.6,5.56,4.89c1.25,0.77,2.61,1.4,4.11,1.84c0.68,0.2,1.39,0.37,2.13,0.48
		c0.99,0.17,2.04,0.25,3.15,0.25c0.36,0,0.72-0.01,1.07-0.03c8.38-0.42,12.87-5.84,17.39-11.79c0.25-0.33,0.49-0.65,0.74-0.98
		c0.17-0.22,0.34-0.45,0.51-0.67c0.2-0.27,0.41-0.55,0.63-0.83c0.41-0.55,0.83-1.09,1.27-1.63c0.41-0.53,0.84-1.06,1.28-1.57
		c0.55-0.65,1.12-1.28,1.72-1.89c0.28-0.31,0.58-0.61,0.89-0.88c0.6-0.6,1.22-1.14,1.87-1.64c3.12-2.45,6.87-4.09,11.83-4.09
		c5.32,0,9.25,1.89,12.49,4.65c0.51,0.41,1,0.86,1.48,1.34c0.24,0.23,0.48,0.47,0.69,0.71c0.48,0.48,0.92,0.97,1.36,1.48
		c1.39,1.61,2.69,3.32,3.97,5.02c1.41,1.87,2.8,3.71,4.29,5.38c0.44,0.51,0.9,1.01,1.37,1.48c0.24,0.24,0.47,0.47,0.71,0.68
		c0.49,0.47,0.98,0.91,1.5,1.32c2.99,2.38,6.55,3.94,11.33,3.94c4.67,0,8.18-1.49,11.12-3.77c0.6-0.47,1.18-0.97,1.74-1.51
		c0.28-0.25,0.56-0.52,0.82-0.8c0.55-0.55,1.07-1.12,1.58-1.71c0.76-0.89,1.51-1.82,2.25-2.77c0.42-0.54,0.84-1.09,1.25-1.65
		c0.15-0.2,0.3-0.39,0.45-0.59c0.06-0.07,0.11-0.15,0.17-0.22c0.41-0.55,0.82-1.09,1.24-1.64c4.49-5.85,9.5-11.34,18.59-11.34
		c0.51,0,1.01,0.02,1.49,0.06c1.44,0.09,2.77,0.34,4.01,0.7c0.67,0.2,1.32,0.43,1.94,0.7c1.33,0.56,2.56,1.28,3.69,2.1
		c1.84,1.32,3.45,2.93,4.95,4.67c0.43,0.5,0.86,1.02,1.27,1.54c0.21,0.25,0.42,0.51,0.62,0.77c0.42,0.53,0.83,1.07,1.23,1.6
		c0.27,0.36,0.54,0.71,0.8,1.06C282.41,201.24,287.02,207.36,296.24,207.57z"/>
</g>
<g>
	<path class="st0" d="M296.24,207.93v5.01c-8.26-0.41-12.55-6-16.35-10.95c-0.46-0.6-0.91-1.19-1.35-1.76
		c-0.43-0.53-0.85-1.05-1.28-1.55c-0.21-0.25-0.43-0.5-0.65-0.74c-0.46-0.51-0.94-1-1.43-1.45c-0.12-0.12-0.24-0.23-0.37-0.33
		c-1.72-1.52-3.67-2.62-6.14-3.02c-0.64-0.11-1.32-0.16-2.04-0.17h-0.11c-1.31,0-2.49,0.17-3.56,0.49
		c-4.22,1.24-6.85,4.67-9.81,8.53c-2.02,2.64-4.18,5.45-7.01,7.57c-0.55,0.41-1.12,0.8-1.72,1.14c-0.29,0.18-0.58,0.34-0.89,0.5
		c-0.63,0.31-1.29,0.6-1.98,0.84c-1.69,0.59-3.59,0.93-5.75,0.93c-1.01,0-1.97-0.08-2.87-0.22c-0.85-0.13-1.65-0.32-2.41-0.56
		c-0.37-0.11-0.72-0.24-1.07-0.38c-0.72-0.28-1.39-0.61-2.04-0.98c-3.82-2.16-6.49-5.63-8.95-8.84c-0.46-0.59-0.91-1.18-1.36-1.75
		c-0.42-0.54-0.84-1.06-1.27-1.56c-0.22-0.26-0.43-0.51-0.66-0.75c-0.46-0.51-0.93-1-1.42-1.44c-2.29-2.12-4.93-3.52-8.66-3.52
		c-3.65,0-6.26,1.34-8.51,3.38c-0.49,0.44-0.96,0.91-1.42,1.41c-0.22,0.24-0.44,0.49-0.66,0.74c-0.43,0.5-0.86,1.03-1.29,1.57
		c-0.49,0.62-0.99,1.27-1.49,1.92c-2.02,2.63-4.18,5.45-7,7.57c-0.55,0.4-1.12,0.79-1.72,1.14c-0.29,0.17-0.59,0.34-0.9,0.5
		c-0.63,0.32-1.29,0.6-1.99,0.84c-1.69,0.59-3.58,0.93-5.73,0.93c-6.55,0-10.7-3.14-14.02-6.85c-0.45-0.51-0.89-1.03-1.31-1.56
		c-0.22-0.26-0.44-0.53-0.65-0.8c-0.43-0.55-0.86-1.1-1.27-1.64c-0.03-0.04-0.07-0.09-0.1-0.13c-0.46-0.6-0.91-1.19-1.35-1.76
		c-0.43-0.53-0.85-1.05-1.28-1.55c-0.21-0.25-0.43-0.5-0.65-0.74c-0.46-0.51-0.94-1-1.43-1.45c-2.28-2.12-4.93-3.52-8.66-3.52
		c-6.45,0-9.66,4.18-13.37,9.02c-1.21,1.57-2.46,3.21-3.88,4.73c-0.46,0.48-0.93,0.96-1.42,1.4c-0.24,0.23-0.49,0.45-0.74,0.66
		c-0.31,0.27-0.63,0.53-0.96,0.78c-0.2,0.15-0.41,0.3-0.62,0.44c-0.36,0.25-0.72,0.48-1.1,0.7c-0.29,0.17-0.59,0.34-0.9,0.49
		c-0.62,0.32-1.28,0.61-1.98,0.85c-1.69,0.59-3.59,0.93-5.74,0.93c-5.38,0-9.04-2.15-11.71-4.54v-7.3l1.02,1.19
		c2.9,3.39,5.83,5.65,10.69,5.65c0.78,0,1.51-0.06,2.2-0.18c0.74-0.12,1.43-0.31,2.09-0.55c0.33-0.12,0.64-0.26,0.95-0.41
		c0.45-0.21,0.89-0.45,1.31-0.72c0.15-0.09,0.29-0.19,0.44-0.29c0.4-0.28,0.79-0.59,1.16-0.91c0.25-0.21,0.5-0.44,0.74-0.68
		c0.48-0.45,0.94-0.94,1.4-1.45c1.04-1.17,2.04-2.47,3.08-3.83c3.95-5.15,8.43-10.98,17.34-10.98c6.07,0,10.08,2.7,13.27,6.04
		c0.51,0.53,0.99,1.08,1.46,1.64c0.24,0.28,0.47,0.56,0.7,0.84c0.41,0.51,0.81,1.02,1.2,1.53c0.07,0.08,0.13,0.16,0.18,0.24
		c0.19,0.23,0.36,0.46,0.54,0.69c0.18,0.24,0.36,0.47,0.54,0.7c0.21,0.28,0.42,0.55,0.63,0.81c0.42,0.55,0.85,1.08,1.28,1.59
		c2.86,3.4,5.91,5.92,10.92,5.92c0.78,0,1.5-0.06,2.19-0.18c0.74-0.12,1.43-0.3,2.09-0.55c0.33-0.12,0.65-0.26,0.97-0.4
		c0.61-0.3,1.18-0.64,1.73-1.03c2.4-1.67,4.31-4.15,6.37-6.83c0.63-0.82,1.28-1.67,1.96-2.5c0.41-0.52,0.84-1.03,1.29-1.53
		c0.21-0.25,0.43-0.49,0.65-0.72c0.45-0.49,0.93-0.97,1.42-1.41c2.99-2.78,6.72-4.85,12.04-4.85c6.06,0,10.07,2.7,13.26,6.04
		c0.51,0.53,0.99,1.08,1.46,1.64c0.24,0.28,0.47,0.56,0.7,0.85c0.48,0.58,0.94,1.18,1.38,1.76c0.19,0.23,0.36,0.46,0.54,0.69
		c2.78,3.61,5.27,6.85,9.01,8.26c0.67,0.26,1.39,0.45,2.15,0.58c0.38,0.07,0.77,0.11,1.17,0.14c0.34,0.03,0.68,0.04,1.04,0.04
		c0.55,0,1.08-0.03,1.59-0.1c0.2-0.01,0.4-0.04,0.6-0.08c0.75-0.12,1.45-0.31,2.11-0.56c0.33-0.11,0.64-0.25,0.95-0.39
		c0.61-0.3,1.18-0.64,1.73-1.02c2.4-1.67,4.31-4.16,6.38-6.84c1.6-2.08,3.28-4.28,5.31-6.14c0.88-0.83,1.84-1.6,2.88-2.26
		c0.54-0.34,1.09-0.66,1.68-0.94c1.23-0.61,2.58-1.07,4.07-1.36c1.06-0.2,2.2-0.31,3.42-0.31c6.07,0,10.07,2.69,13.26,6.04
		c0.51,0.53,1,1.08,1.47,1.64c0.24,0.28,0.47,0.56,0.7,0.84c0.47,0.59,0.94,1.18,1.38,1.77c0.19,0.23,0.36,0.46,0.54,0.69
		C287.38,203.53,290.45,207.52,296.24,207.93z"/>
	<path class="st0" d="M296.24,209.94v1c-7.27-0.42-11.08-5.37-14.76-10.17c-0.4-0.52-0.8-1.04-1.2-1.55
		c-0.43-0.55-0.86-1.08-1.3-1.6c-0.21-0.26-0.43-0.52-0.66-0.77c-0.46-0.52-0.93-1.02-1.42-1.5c-2.05-1.99-4.4-3.52-7.48-4.11
		c-0.9-0.18-1.86-0.27-2.9-0.27c-0.53,0-1.05,0.02-1.54,0.07c-0.69,0.07-1.34,0.18-1.96,0.33c-1.25,0.29-2.37,0.75-3.4,1.33
		c-3.27,1.83-5.62,4.89-8.06,8.07c-2.05,2.67-4.14,5.39-6.84,7.35c-0.54,0.39-1.12,0.76-1.72,1.08c-0.29,0.17-0.6,0.32-0.91,0.46
		c-0.63,0.29-1.3,0.54-2.01,0.74c-1.29,0.37-2.71,0.57-4.28,0.57c-0.36,0-0.7-0.01-1.04-0.03c-0.87-0.05-1.69-0.17-2.46-0.35
		c-0.38-0.08-0.75-0.18-1.11-0.29c-0.73-0.22-1.41-0.5-2.06-0.82c-3.85-1.9-6.5-5.34-9.08-8.71c-0.4-0.52-0.8-1.04-1.2-1.55
		c-0.42-0.55-0.85-1.08-1.3-1.6c-0.21-0.26-0.43-0.52-0.66-0.77c-0.46-0.52-0.93-1.02-1.43-1.5c-2.64-2.57-5.79-4.38-10.37-4.38
		c-4.29,0-7.32,1.59-9.86,3.91c-0.49,0.43-0.97,0.91-1.43,1.4c-0.22,0.24-0.44,0.48-0.65,0.73c-0.44,0.5-0.87,1.01-1.29,1.54
		c-0.58,0.72-1.15,1.47-1.73,2.22c-2.05,2.67-4.14,5.39-6.84,7.34c-0.54,0.4-1.11,0.77-1.71,1.09c-0.3,0.17-0.6,0.32-0.92,0.47
		c-0.63,0.29-1.3,0.53-2.01,0.73c-1.29,0.37-2.7,0.57-4.27,0.57c-5.94,0-9.67-2.91-12.78-6.48c-0.45-0.51-0.88-1.04-1.31-1.57
		c-0.21-0.27-0.43-0.54-0.64-0.81c-0.34-0.44-0.69-0.89-1.03-1.34c-0.08-0.1-0.15-0.2-0.24-0.3c-0.32-0.42-0.64-0.84-0.96-1.25
		c-0.43-0.55-0.86-1.08-1.3-1.6c-0.21-0.26-0.43-0.52-0.66-0.77c-0.46-0.52-0.93-1.02-1.42-1.5c-2.65-2.57-5.8-4.38-10.38-4.38
		c-7.43,0-11.09,4.76-14.96,9.8c-1.15,1.5-2.31,3.02-3.59,4.4c-0.46,0.5-0.93,0.98-1.42,1.42c-0.24,0.24-0.49,0.46-0.74,0.66
		c-0.35,0.31-0.71,0.6-1.09,0.86c-0.16,0.13-0.33,0.25-0.5,0.36c-0.39,0.26-0.79,0.51-1.21,0.73c-0.3,0.17-0.6,0.32-0.92,0.46
		c-0.63,0.29-1.3,0.54-2.01,0.74c-1.29,0.37-2.7,0.57-4.27,0.57c-5.28,0-8.8-2.3-11.71-5.32v-1.46c2.93,3.28,6.34,5.78,11.71,5.78
		c1.3,0,2.49-0.15,3.58-0.41c0.72-0.18,1.39-0.41,2.03-0.69c0.32-0.13,0.63-0.28,0.93-0.44c0.43-0.22,0.85-0.47,1.25-0.74
		c0.16-0.1,0.32-0.21,0.47-0.32c0.39-0.27,0.76-0.57,1.12-0.89c0.25-0.2,0.5-0.42,0.74-0.66c0.49-0.44,0.96-0.93,1.41-1.43
		c1.2-1.31,2.31-2.75,3.43-4.22c3.85-5.02,7.83-10.2,15.75-10.2c5.02,0,8.46,2.08,11.28,4.88c0.5,0.49,0.98,1.01,1.45,1.54
		c0.23,0.26,0.45,0.52,0.67,0.78c0.45,0.54,0.88,1.09,1.31,1.64c0.22,0.27,0.43,0.55,0.65,0.83c0.13,0.18,0.26,0.35,0.4,0.53
		c0.29,0.37,0.57,0.74,0.86,1.11c0.21,0.27,0.42,0.54,0.63,0.81c0.43,0.54,0.86,1.07,1.3,1.58c3.04,3.54,6.51,6.3,12.17,6.3
		c1.3,0,2.48-0.15,3.57-0.41c0.72-0.18,1.39-0.41,2.03-0.68c0.32-0.14,0.64-0.29,0.94-0.45c0.6-0.31,1.17-0.67,1.72-1.06
		c2.59-1.85,4.61-4.48,6.7-7.2c0.6-0.78,1.2-1.57,1.82-2.34c0.42-0.52,0.85-1.03,1.29-1.53c0.22-0.25,0.44-0.49,0.66-0.73
		c0.46-0.49,0.93-0.96,1.42-1.4c2.68-2.45,5.96-4.2,10.56-4.2c5.02,0,8.46,2.08,11.28,4.89c0.5,0.49,0.98,1,1.44,1.53
		c0.23,0.26,0.45,0.52,0.67,0.79c0.45,0.54,0.88,1.08,1.32,1.63c0.34,0.45,0.69,0.91,1.04,1.36c2.69,3.5,5.27,6.86,9.08,8.58
		c0.66,0.31,1.35,0.56,2.09,0.75c0.36,0.1,0.74,0.18,1.12,0.25c0.79,0.13,1.62,0.21,2.51,0.22h0.16c1.31,0,2.5-0.15,3.59-0.42
		c0.72-0.17,1.39-0.4,2.03-0.67c0.31-0.14,0.62-0.29,0.92-0.45c0.6-0.31,1.17-0.66,1.72-1.06c2.59-1.84,4.62-4.48,6.71-7.2
		c2.13-2.78,4.31-5.61,7.17-7.58c0.97-0.68,2.03-1.25,3.2-1.68c0.6-0.24,1.23-0.43,1.9-0.57c1.07-0.24,2.23-0.37,3.48-0.37
		c0.3,0,0.59,0.01,0.87,0.02c4.56,0.23,7.76,2.22,10.41,4.86c0.5,0.49,0.98,1.01,1.45,1.54c0.23,0.26,0.45,0.52,0.67,0.78
		c0.45,0.54,0.88,1.09,1.31,1.64c0.35,0.45,0.7,0.91,1.05,1.36C285.97,204.98,289.47,209.53,296.24,209.94z"/>
</g>
<polyline class="st6" points="101.24,165.08 101.24,250.08 296.74,250.08 "/>
<g>
	<path d="M170.73,112.13v15.51h-2.51v-10.25l-4.09,7.74h-1.89l-4.11-7.63l0.02,10.14h-2.51v-15.51h2.24l5.32,10.14l5.3-10.14H170.73
		z"/>
	<path d="M176.73,111.89v2.71h-3.04v-2.71H176.73z M173.85,116.88h2.75v10.76h-2.75V116.88z"/>
	<path d="M182.19,127.16c0,1.51-0.35,2.61-1.06,3.3s-1.88,1.09-3.52,1.19l-1.03,0.07l-0.2-2l1.08-0.09c0.67-0.04,1.17-0.22,1.5-0.54
		s0.48-0.8,0.48-1.44v-10.76h2.75V127.16z M182.3,111.89v2.71h-3.04v-2.71H182.3z"/>
	<path d="M194.16,117.72c0.63,0.73,0.95,1.84,0.95,3.32v6.6h-2.75v-6.45c0-0.84-0.16-1.44-0.47-1.83c-0.32-0.38-0.81-0.57-1.49-0.57
		c-0.79,0-1.43,0.25-1.9,0.75c-0.48,0.5-0.71,1.17-0.71,2v6.09h-2.75v-10.76h2.68v1.61c0.37-0.6,0.86-1.06,1.47-1.39
		c0.62-0.32,1.31-0.48,2.09-0.48C192.57,116.62,193.53,116.99,194.16,117.72z"/>
	<path d="M219.37,117.71c0.6,0.73,0.9,1.84,0.9,3.33v6.6h-2.75v-6.49c0-0.82-0.14-1.42-0.42-1.79s-0.73-0.56-1.34-0.56
		c-0.73,0-1.31,0.25-1.72,0.75c-0.41,0.5-0.62,1.2-0.62,2.09v6.01h-2.75v-6.49c0-0.82-0.14-1.42-0.41-1.79s-0.72-0.56-1.35-0.56
		c-0.72,0-1.28,0.25-1.69,0.75c-0.41,0.5-0.62,1.2-0.62,2.09v6.01h-2.75v-10.76h2.68v1.52c0.32-0.59,0.77-1.03,1.34-1.33
		c0.57-0.3,1.22-0.45,1.96-0.45c1.63,0,2.71,0.67,3.23,2.02c0.34-0.63,0.82-1.13,1.45-1.48c0.63-0.36,1.33-0.54,2.11-0.54
		C217.86,116.62,218.77,116.98,219.37,117.71z"/>
	<path d="M232.5,122.76h-7.33c0.09,1,0.39,1.74,0.9,2.22s1.25,0.73,2.2,0.73c1.19,0,2.27-0.38,3.26-1.14l0.79,1.89
		c-0.5,0.41-1.13,0.74-1.88,0.99c-0.76,0.25-1.51,0.37-2.28,0.37c-1.76,0-3.15-0.5-4.17-1.5c-1.02-1-1.53-2.36-1.53-4.09
		c0-1.1,0.22-2.08,0.66-2.93s1.06-1.51,1.86-1.98s1.71-0.7,2.72-0.7c1.48,0,2.65,0.48,3.51,1.43c0.86,0.95,1.29,2.27,1.29,3.94
		V122.76z M226,119.26c-0.45,0.47-0.72,1.14-0.83,2.02h4.97c-0.03-0.89-0.25-1.57-0.66-2.04s-0.98-0.69-1.72-0.69
		C227.04,118.56,226.45,118.79,226,119.26z"/>
	<path d="M241.11,125.68l-0.13,2.05c-0.44,0.04-0.84,0.07-1.21,0.07c-1.51,0-2.63-0.35-3.34-1.04c-0.72-0.7-1.08-1.73-1.08-3.11
		v-4.69h-2.07v-2.07h2.07v-3.21h2.75v3.21h2.84v2.07h-2.84v4.64c0,1.44,0.67,2.16,2,2.16C240.42,125.75,240.75,125.73,241.11,125.68
		z"/>
	<path d="M245.59,111.89v2.71h-3.04v-2.71H245.59z M242.71,116.88h2.75v10.76h-2.75V116.88z"/>
	<path d="M257.43,117.72c0.63,0.73,0.95,1.84,0.95,3.32v6.6h-2.75v-6.45c0-0.84-0.16-1.44-0.47-1.83s-0.81-0.57-1.49-0.57
		c-0.79,0-1.43,0.25-1.9,0.75c-0.48,0.5-0.71,1.17-0.71,2v6.09h-2.75v-10.76h2.68v1.61c0.37-0.6,0.86-1.06,1.47-1.39
		c0.62-0.32,1.31-0.48,2.09-0.48C255.84,116.62,256.8,116.99,257.43,117.72z"/>
	<path d="M271.64,116.88v9.77c0,1.69-0.47,2.96-1.4,3.83s-2.31,1.3-4.12,1.3c-0.94,0-1.84-0.12-2.71-0.36s-1.62-0.58-2.27-1.02
		l0.77-1.94c1.33,0.81,2.71,1.21,4.14,1.21c1.91,0,2.86-0.94,2.86-2.82v-1.41c-0.32,0.6-0.79,1.07-1.41,1.4
		c-0.62,0.33-1.32,0.5-2.11,0.5c-0.94,0-1.77-0.22-2.5-0.67c-0.73-0.45-1.29-1.07-1.71-1.88c-0.41-0.81-0.62-1.74-0.62-2.79
		c0-1.06,0.2-1.99,0.61-2.81c0.4-0.81,0.97-1.44,1.71-1.89c0.73-0.45,1.57-0.67,2.51-0.67c0.79,0,1.5,0.17,2.11,0.5
		c0.62,0.33,1.09,0.8,1.41,1.4v-1.63H271.64z M268.18,124.34c0.49-0.57,0.74-1.36,0.74-2.35c0-1.01-0.25-1.8-0.74-2.38
		c-0.49-0.57-1.18-0.86-2.06-0.86c-0.87,0-1.55,0.29-2.05,0.86c-0.5,0.57-0.75,1.36-0.75,2.38c0,0.98,0.25,1.76,0.75,2.34
		c0.5,0.58,1.18,0.87,2.05,0.87C267,125.2,267.69,124.91,268.18,124.34z"/>
	<path d="M283.92,122.76h-7.33c0.09,1,0.39,1.74,0.9,2.22c0.51,0.48,1.25,0.73,2.2,0.73c1.19,0,2.27-0.38,3.26-1.14l0.79,1.89
		c-0.5,0.41-1.13,0.74-1.88,0.99c-0.75,0.25-1.51,0.37-2.28,0.37c-1.76,0-3.15-0.5-4.17-1.5c-1.02-1-1.53-2.36-1.53-4.09
		c0-1.1,0.22-2.08,0.66-2.93c0.44-0.85,1.06-1.51,1.86-1.98c0.8-0.47,1.7-0.7,2.72-0.7c1.48,0,2.65,0.48,3.51,1.43
		c0.86,0.95,1.29,2.27,1.29,3.94V122.76z M277.42,119.26c-0.45,0.47-0.72,1.14-0.83,2.02h4.97c-0.03-0.89-0.25-1.57-0.66-2.04
		c-0.41-0.46-0.98-0.69-1.72-0.69S277.86,118.79,277.42,119.26z"/>
	<path d="M295.29,117.72c0.63,0.73,0.95,1.84,0.95,3.32v6.6h-2.75v-6.45c0-0.84-0.16-1.44-0.47-1.83s-0.81-0.57-1.49-0.57
		c-0.79,0-1.43,0.25-1.9,0.75c-0.48,0.5-0.71,1.17-0.71,2v6.09h-2.75v-10.76h2.68v1.61c0.37-0.6,0.86-1.06,1.47-1.39
		c0.62-0.32,1.31-0.48,2.09-0.48C293.7,116.62,294.66,116.99,295.29,117.72z"/>
</g>
</svg>
