<?xml version="1.0" encoding="utf-8"?>
<!-- Generator: Adobe Illustrator 27.3.1, SVG Export Plug-In . SVG Version: 6.00 Build 0)  -->
<svg version="1.1" id="Layer_1" xmlns="http://www.w3.org/2000/svg" xmlns:xlink="http://www.w3.org/1999/xlink" x="0px" y="0px"
	 viewBox="0 0 508.67 508.67" style="enable-background:new 0 0 508.67 508.67;" xml:space="preserve">
<style type="text/css">
	.st0{fill:#FF6E6B;}
	.st1{fill:#F8F8F8;}
</style>
<g>
	<path class="st0" d="M362.32,88.9c33.9,20.41,65.16,44.76,82.61,76.35c17.44,31.92,21.72,71.09,32.91,116.84
		c11.52,45.75,30.61,98.08,8.23,122.1c-22.05,23.7-85.24,19.09-130.66,16.78c-45.09-2.3-72.73-2.3-106.96,9.22
		c-34.23,11.19-75.04,34.23-108.61,29.62c-33.57-4.28-59.9-36.2-84.91-71.42S6.55,314.34,13.46,279.46
		c7.24-34.56,45.09-65.16,70.1-100.05c25.34-34.89,37.85-74.05,64.51-98.73c26.33-24.68,66.81-34.89,105.32-31.92
		C291.89,52.04,328.42,68.5,362.32,88.9z"/>
</g>
<g>
	<g>
		<path class="st1" d="M168.95,211.48c-23.41,0-70.16,11.42-70.16,34.34v17.17H239.1v-17.17
			C239.1,222.9,192.36,211.48,168.95,211.48z M90.02,177.13v-25.76H72.48v25.76H46.17v17.17h26.31v25.76h17.54v-25.76h26.31v-17.17
			 M168.95,194.31c9.3,0,18.23-3.62,24.8-10.06c6.58-6.44,10.27-15.18,10.27-24.28c0-9.11-3.7-17.84-10.27-24.28
			c-6.58-6.44-15.5-10.06-24.8-10.06s-18.23,3.62-24.8,10.06c-6.58,6.44-10.27,15.18-10.27,24.28c0,9.11,3.7,17.84,10.27,24.28
			C150.72,190.69,159.64,194.31,168.95,194.31z"/>
	</g>
	<g>
		<path class="st1" d="M392.34,183.01c-23.41,0-70.16,11.42-70.16,34.34v17.17h140.31v-17.17
			C462.49,194.43,415.75,183.01,392.34,183.01z M313.41,148.67v-25.76h-17.54v25.76h-26.31v17.17h26.31v25.76h17.54v-25.76h26.31
			v-17.17 M392.34,165.84c9.3,0,18.23-3.62,24.8-10.06c6.58-6.44,10.27-15.18,10.27-24.28c0-9.11-3.7-17.84-10.27-24.28
			c-6.58-6.44-15.5-10.06-24.8-10.06s-18.23,3.62-24.8,10.06c-6.58,6.44-10.27,15.18-10.27,24.28c0,9.11,3.7,17.84,10.27,24.28
			C374.11,162.22,383.03,165.84,392.34,165.84z"/>
	</g>
	<g>
		<path class="st1" d="M330.95,381.05c-23.41,0-70.16,11.42-70.16,34.34v17.17h140.31V415.4
			C401.11,392.47,354.37,381.05,330.95,381.05z M252.02,346.71v-25.76h-17.54v25.76h-26.31v17.17h26.31v25.76h17.54v-25.76h26.31
			v-17.17 M330.95,363.88c9.3,0,18.23-3.62,24.8-10.06c6.58-6.44,10.27-15.18,10.27-24.28c0-9.11-3.7-17.84-10.27-24.28
			c-6.58-6.44-15.5-10.06-24.8-10.06s-18.23,3.62-24.8,10.06c-6.58,6.44-10.27,15.18-10.27,24.28c0,9.11,3.7,17.84,10.27,24.28
			C312.73,360.26,321.65,363.88,330.95,363.88z"/>
	</g>
</g>
</svg>
