<?xml version="1.0" encoding="utf-8"?>
<!-- Generator: Adobe Illustrator 27.3.1, SVG Export Plug-In . SVG Version: 6.00 Build 0)  -->
<svg version="1.1" id="Layer_1" xmlns="http://www.w3.org/2000/svg" xmlns:xlink="http://www.w3.org/1999/xlink" x="0px" y="0px"
	 viewBox="0 0 493.28 493.28" style="enable-background:new 0 0 493.28 493.28;" xml:space="preserve">
<style type="text/css">
	.st0{fill:#E9F3E6;}
	.st1{fill:#F16D6C;}
</style>
<g>
	<path class="st0" d="M398.71,49.69c34.35,22.45,48.64,75.51,58.5,125.17c10.2,49.66,15.99,96.26,10.88,147.96
		c-4.76,51.36-20.75,108.17-58.16,129.25c-37.08,20.75-95.92,6.12-144.9-7.48c-48.64-13.61-87.76-26.19-130.28-45.58
		c-42.52-19.39-88.44-45.24-104.42-83.68c-15.99-38.1-1.7-88.78,12.59-141.5c14.29-52.38,28.91-106.81,64.29-128.91
		s91.5-11.91,146.94-10.54C309.93,35.4,364.36,27.58,398.71,49.69z"/>
</g>
<g>
	<path class="st1" d="M328.18,270.83c-29.97,0-55.11,21.43-61.56,49.96c-15.31-6.61-29.33-4.83-39.97-0.16
		c-6.61-28.68-31.75-49.8-61.56-49.8c-34.97,0-63.49,28.85-63.49,64.46c0,35.61,28.52,64.46,63.49,64.46
		c33.2,0,60.27-26.11,62.85-59.3c5.48-3.87,19.82-11.12,37.39,0.32c2.9,33.04,29.65,58.98,62.85,58.98
		c34.97,0,63.49-28.85,63.49-64.46C391.68,299.68,363.15,270.83,328.18,270.83z M165.1,381.38c-25.14,0-45.28-20.63-45.28-46.09
		c0-25.46,20.31-46.09,45.28-46.09c25.14,0,45.28,20.63,45.28,46.09C210.38,360.75,190.24,381.38,165.1,381.38z M328.18,381.38
		c-25.14,0-45.28-20.63-45.28-46.09c0-25.46,20.14-46.09,45.28-46.09c25.14,0,45.44,20.63,45.44,46.09
		C373.63,360.75,353.16,381.38,328.18,381.38z M407.79,230.54H85.49v24.17h322.3V230.54z M303.53,103.72
		c-3.55-7.9-12.57-12.09-21.11-9.35l-35.78,11.93L210.7,94.37l-0.81-0.16c-8.54-2.42-17.57,2.09-20.79,10.31l-39.16,101.85h193.38
		l-39.32-101.85L303.53,103.72z"/>
</g>
</svg>
