<svg width="580" height="135" viewBox="0 0 580 135" fill="none" xmlns="http://www.w3.org/2000/svg">
<path d="M178 85.4133V37.3238H190.041V44.6994C191.489 42.077 193.495 40.0446 196.062 38.6022C198.628 37.0943 201.589 36.3403 204.944 36.3403C212.182 36.3403 216.92 39.4873 219.157 45.7812C220.67 42.8309 222.842 40.5363 225.671 38.8972C228.5 37.1926 231.724 36.3403 235.343 36.3403C246.2 36.3403 251.628 42.9293 251.628 56.1072V85.4133H239.291V56.5989C239.291 52.9274 238.666 50.2394 237.416 48.5348C236.231 46.8302 234.192 45.9779 231.297 45.9779C228.072 45.9779 225.539 47.1252 223.697 49.4199C221.855 51.649 220.933 54.7632 220.933 58.7624V85.4133H208.596V56.5989C208.596 52.9274 207.971 50.2394 206.721 48.5348C205.537 46.8302 203.53 45.9779 200.7 45.9779C197.476 45.9779 194.943 47.1252 193.101 49.4199C191.258 51.649 190.337 54.7632 190.337 58.7624V85.4133H178Z" fill="white"/>
<path d="M288.142 86.3967C282.68 86.3967 277.976 85.3805 274.028 83.3481C270.08 81.3157 267.02 78.4309 264.849 74.6939C262.744 70.9569 261.691 66.5315 261.691 61.4177C261.691 56.435 262.711 52.0751 264.75 48.3381C266.856 44.6011 269.718 41.6836 273.337 39.5856C277.022 37.4221 281.2 36.3403 285.872 36.3403C292.715 36.3403 298.11 38.5039 302.058 42.8309C306.072 47.158 308.079 53.0586 308.079 60.5326V64.1713H273.534C274.456 72.7599 279.391 77.0541 288.339 77.0541C291.037 77.0541 293.735 76.6608 296.432 75.874C299.13 75.0217 301.597 73.7105 303.835 71.9403L307.289 80.2011C304.986 82.1024 302.091 83.6103 298.604 84.7249C295.116 85.8394 291.629 86.3967 288.142 86.3967ZM286.365 44.6994C282.746 44.6994 279.818 45.814 277.581 48.0431C275.344 50.2722 273.995 53.288 273.534 57.0906H297.814C297.551 53.0913 296.432 50.0427 294.458 47.9448C292.55 45.7812 289.852 44.6994 286.365 44.6994Z" fill="white"/>
<path d="M336.404 86.3967C332.193 86.3967 328.475 85.3805 325.251 83.3481C322.093 81.3157 319.625 78.4309 317.849 74.6939C316.072 70.8913 315.184 66.4331 315.184 61.3193C315.184 56.14 316.072 51.7145 317.849 48.0431C319.625 44.3061 322.093 41.4214 325.251 39.3889C328.475 37.3565 332.193 36.3403 336.404 36.3403C339.825 36.3403 342.918 37.0943 345.682 38.6022C348.445 40.1101 350.518 42.1098 351.899 44.6011V16.0818H364.237V85.4133H352.196V77.4475C350.88 80.2011 348.807 82.3974 345.978 84.0365C343.148 85.6099 339.957 86.3967 336.404 86.3967ZM339.858 77.0541C343.543 77.0541 346.504 75.7429 348.741 73.1204C350.978 70.4324 352.097 66.4987 352.097 61.3193C352.097 56.0744 350.978 52.1735 348.741 49.6166C346.504 46.9941 343.543 45.6829 339.858 45.6829C336.174 45.6829 333.213 46.9941 330.976 49.6166C328.738 52.1735 327.62 56.0744 327.62 61.3193C327.62 66.4987 328.738 70.4324 330.976 73.1204C333.213 75.7429 336.174 77.0541 339.858 77.0541Z" fill="white"/>
<path d="M376.239 26.9978V15H390.057V26.9978H376.239ZM377.029 85.4133V37.3238H389.366V85.4133H377.029Z" fill="white"/>
<path d="M417.977 86.2983C413.108 86.2983 409.423 84.8888 406.922 82.0696C404.488 79.1849 403.271 75.0217 403.271 69.5801V16.0818H411.265V68.9901C411.265 76.0052 414.062 79.5127 419.654 79.5127C421.299 79.5127 422.78 79.316 424.096 78.9226L423.898 85.6099C421.859 86.0689 419.885 86.2983 417.977 86.2983Z" fill="white"/>
<path d="M451.93 86.2983C447.258 86.2983 443.212 85.2821 439.79 83.2497C436.369 81.2173 433.704 78.3654 431.796 74.6939C429.953 70.9569 429.032 66.5643 429.032 61.516C429.032 56.4678 429.953 52.1079 431.796 48.4365C433.704 44.6994 436.369 41.8147 439.79 39.7823C443.212 37.7499 447.258 36.7337 451.93 36.7337C456.536 36.7337 460.55 37.7499 463.971 39.7823C467.458 41.8147 470.123 44.6994 471.966 48.4365C473.874 52.1079 474.828 56.4678 474.828 61.516C474.828 66.5643 473.874 70.9569 471.966 74.6939C470.123 78.3654 467.458 81.2173 463.971 83.2497C460.55 85.2821 456.536 86.2983 451.93 86.2983ZM451.93 79.9061C456.404 79.9061 459.99 78.3326 462.688 75.1856C465.386 71.9731 466.735 67.4166 466.735 61.516C466.735 55.5499 465.386 50.9934 462.688 47.8464C459.99 44.6994 456.404 43.126 451.93 43.126C447.39 43.126 443.771 44.6994 441.073 47.8464C438.441 50.9934 437.125 55.5499 437.125 61.516C437.125 67.4166 438.441 71.9731 441.073 75.1856C443.771 78.3326 447.39 79.9061 451.93 79.9061Z" fill="white"/>
<path d="M508.056 104C503.91 104 499.995 103.443 496.311 102.328C492.692 101.279 489.468 99.6729 486.638 97.5094L489.303 91.7072C492.264 93.8052 495.192 95.3131 498.087 96.2309C501.048 97.1488 504.239 97.6077 507.661 97.6077C517.136 97.6077 521.873 92.7562 521.873 83.053V74.5956C520.492 77.6114 518.32 80.0044 515.359 81.7746C512.464 83.4792 509.141 84.3315 505.391 84.3315C500.982 84.3315 497.166 83.3153 493.942 81.2829C490.718 79.2505 488.218 76.4641 486.441 72.9238C484.73 69.3179 483.875 65.1547 483.875 60.4343C483.875 55.7138 484.73 51.5834 486.441 48.0431C488.218 44.4372 490.718 41.6508 493.942 39.684C497.166 37.7171 500.982 36.7337 505.391 36.7337C509.141 36.7337 512.464 37.586 515.359 39.2906C518.32 40.9952 520.492 43.3227 521.873 46.2729V37.6188H529.67V81.9713C529.67 89.3142 527.828 94.8214 524.143 98.4928C520.525 102.164 515.162 104 508.056 104ZM506.871 77.8409C511.477 77.8409 515.129 76.2674 517.827 73.1204C520.525 69.9735 521.873 65.7447 521.873 60.4343C521.873 55.1238 520.525 50.9278 517.827 47.8464C515.129 44.6994 511.477 43.126 506.871 43.126C502.331 43.126 498.712 44.6994 496.015 47.8464C493.317 50.9278 491.968 55.1238 491.968 60.4343C491.968 65.7447 493.317 69.9735 496.015 73.1204C498.712 76.2674 502.331 77.8409 506.871 77.8409Z" fill="white"/>
<path d="M560.853 86.2983C557.102 86.2983 553.549 85.7738 550.193 84.7249C546.838 83.6759 544.074 82.2007 541.903 80.2995L544.469 74.6939C546.838 76.5952 549.437 78.0048 552.266 78.9226C555.161 79.7749 558.089 80.2011 561.05 80.2011C564.801 80.2011 567.63 79.5127 569.538 78.1359C571.446 76.7591 572.4 74.8906 572.4 72.5304C572.4 70.6947 571.775 69.2523 570.525 68.2033C569.275 67.0888 567.301 66.2365 564.603 65.6464L555.622 63.6796C547.463 61.9094 543.383 57.7134 543.383 51.0917C543.383 46.7646 545.094 43.2899 548.516 40.6674C552.003 38.0449 556.543 36.7337 562.136 36.7337C565.426 36.7337 568.551 37.2582 571.512 38.3072C574.539 39.2906 577.039 40.7657 579.013 42.7326L576.348 48.3381C574.44 46.568 572.203 45.2239 569.637 44.3061C567.136 43.3226 564.636 42.8309 562.136 42.8309C558.451 42.8309 555.655 43.5521 553.746 44.9945C551.838 46.4368 550.884 48.3381 550.884 50.6983C550.884 54.3698 553.319 56.73 558.188 57.779L567.169 59.6475C571.38 60.5654 574.572 62.0405 576.743 64.0729C578.914 66.0398 580 68.7278 580 72.137C580 76.5296 578.256 80.0044 574.769 82.5613C571.282 85.0527 566.643 86.2983 560.853 86.2983Z" fill="white"/>
<path fill-rule="evenodd" clip-rule="evenodd" d="M100.695 5.19231H8.30476C6.58479 5.19231 5.19048 6.58711 5.19048 8.30769V126.692C5.19048 128.413 6.58479 129.808 8.30476 129.808H100.695C102.415 129.808 103.81 128.413 103.81 126.692V8.30769C103.81 6.58711 102.415 5.19231 100.695 5.19231ZM8.30476 0C3.71817 0 0 3.71948 0 8.30769V126.692C0 131.281 3.71817 135 8.30476 135H100.695C105.282 135 109 131.281 109 126.692V8.30769C109 3.71948 105.282 0 100.695 0H8.30476Z" fill="white"/>
<path d="M91 54.7037C91 59.2856 87.3159 63 82.7714 63L27.2286 63C22.6841 63 19 59.2856 19 54.7037L19 43.2963C19 38.7144 22.6841 35 27.2286 35L82.7714 35C87.3159 35 91 38.7144 91 43.2963L91 54.7037Z" fill="white"/>
<path d="M49.2963 85C44.7144 85 41 81.2648 41 76.6571L41 20.3429C41 15.7352 44.7144 12 49.2963 12L60.7037 12C65.2856 12 69 15.7352 69 20.3429L69 76.6571C69 81.2648 65.2856 85 60.7037 85L49.2963 85Z" fill="white"/>
<path d="M19 100.5C19 99.1193 20.1513 98 21.5714 98H88.4286C89.8487 98 91 99.1193 91 100.5V100.5C91 101.881 89.8487 103 88.4286 103H21.5714C20.1513 103 19 101.881 19 100.5V100.5Z" fill="white"/>
<path d="M19 109.5C19 108.119 20.1513 107 21.5714 107H88.4286C89.8487 107 91 108.119 91 109.5V109.5C91 110.881 89.8487 112 88.4286 112H21.5714C20.1513 112 19 110.881 19 109.5V109.5Z" fill="white"/>
<path d="M19 118.5C19 117.119 20.1513 116 21.5714 116H88.4286C89.8487 116 91 117.119 91 118.5V118.5C91 119.881 89.8487 121 88.4286 121H21.5714C20.1513 121 19 119.881 19 118.5V118.5Z" fill="white"/>
</svg>
