<svg width="60" height="60" viewBox="0 0 60 60" fill="none" xmlns="http://www.w3.org/2000/svg">
<g clip-path="url(#clip0_43_17)">
<circle cx="30" cy="30" r="30" transform="rotate(-180 30 30)" fill="black"/>
<path d="M38.9123 12.8708C39.4941 13.4514 39.785 14.1903 39.785 15.0875C39.785 15.9847 39.4941 16.7236 38.9123 17.3042L26.5365 29.6542L38.9123 42.0042C39.4941 42.5847 39.785 43.3236 39.785 44.2208C39.785 45.1181 39.4941 45.857 38.9123 46.4375C38.3306 47.0181 37.5901 47.3083 36.691 47.3083C35.7919 47.3083 35.0515 47.0181 34.4697 46.4375L19.8727 31.8708C19.5553 31.5542 19.33 31.2111 19.1968 30.8417C19.0656 30.4722 19 30.0764 19 29.6542C19 29.232 19.0656 28.8361 19.1968 28.4667C19.33 28.0972 19.5553 27.7542 19.8727 27.4375L34.4697 12.8708C35.0515 12.2903 35.7919 12 36.691 12C37.5901 12 38.3306 12.2903 38.9123 12.8708Z" fill="white"/>
</g>
<defs>
<clipPath id="clip0_43_17">
<rect width="60" height="60" fill="white" transform="translate(60 60) rotate(-180)"/>
</clipPath>
</defs>
</svg>
