<svg width="60" height="60" viewBox="0 0 60 60" fill="none" xmlns="http://www.w3.org/2000/svg">
<path fill-rule="evenodd" clip-rule="evenodd" d="M2.46103 5.08897C4.0368 3.43128 6.17401 2.5 8.40249 2.5H29.0975C31.326 2.5 33.4632 3.43128 35.039 5.08897C36.6147 6.74665 37.5 8.99496 37.5 11.3393V17.5595C37.5 19.006 36.3854 20.1786 35.0104 20.1786C33.6354 20.1786 32.5207 19.006 32.5207 17.5595V11.3393C32.5207 10.3842 32.1601 9.46821 31.5181 8.79286C30.8761 8.1175 30.0054 7.7381 29.0975 7.7381H8.40249C7.49459 7.7381 6.62388 8.11751 5.9819 8.79286C5.33991 9.46821 4.97925 10.3842 4.97925 11.3393V48.6607C4.97925 49.6158 5.33991 50.5318 5.9819 51.2071C6.62388 51.8825 7.49459 52.2619 8.40249 52.2619H29.0975C30.0054 52.2619 30.8761 51.8825 31.5181 51.2071C32.1601 50.5318 32.5207 49.6158 32.5207 48.6607V42.4405C32.5207 40.994 33.6354 39.8214 35.0104 39.8214C36.3854 39.8214 37.5 40.994 37.5 42.4405V48.6607C37.5 51.005 36.6147 53.2533 35.039 54.911C33.4632 56.5687 31.326 57.5 29.0975 57.5H8.40249C6.17401 57.5 4.0368 56.5687 2.46103 54.911C0.88526 53.2533 0 51.005 0 48.6607V11.3393C0 8.99496 0.885259 6.74665 2.46103 5.08897Z" fill="#FF6E6C"/>
<path fill-rule="evenodd" clip-rule="evenodd" d="M46.5607 20.642C47.5567 19.786 49.1715 19.786 50.1675 20.642L59.253 28.4502C60.249 29.3061 60.249 30.6939 59.253 31.5498L50.1675 39.358C49.1715 40.214 47.5567 40.214 46.5607 39.358C45.5648 38.5021 45.5648 37.1143 46.5607 36.2584L51.2926 32.1918H15.0503C13.6418 32.1918 12.5 31.2105 12.5 30C12.5 28.7895 13.6418 27.8082 15.0503 27.8082H51.2926L46.5607 23.7416C45.5648 22.8857 45.5648 21.4979 46.5607 20.642Z" fill="#FF6E6C"/>
</svg>
