<svg width="60" height="60" viewBox="0 0 60 60" fill="none" xmlns="http://www.w3.org/2000/svg">
<path d="M45.9059 21.1765H40.2941V3.52941C40.2941 1.58824 38.7059 0 36.7647 0H22.6471C20.7059 0 19.1176 1.58824 19.1176 3.52941V21.1765H13.5059C10.3647 21.1765 8.77647 24.9882 11 27.2118L27.2 43.4118C28.5765 44.7882 30.8 44.7882 32.1765 43.4118L48.3765 27.2118C50.6 24.9882 49.0471 21.1765 45.9059 21.1765ZM5 56.4706C5 58.4118 6.58824 60 8.52941 60H50.8824C52.8235 60 54.4118 58.4118 54.4118 56.4706C54.4118 54.5294 52.8235 52.9412 50.8824 52.9412H8.52941C6.58824 52.9412 5 54.5294 5 56.4706Z" fill="white"/>
</svg>
