<svg width="24" height="18" viewBox="0 0 24 18" fill="none" xmlns="http://www.w3.org/2000/svg">
<path d="M15.2727 10.9091C12.36 10.9091 6.54545 12.36 6.54545 15.2727V17.4545H24V15.2727C24 12.36 18.1855 10.9091 15.2727 10.9091ZM5.45455 6.54545V3.27273H3.27273V6.54545H0V8.72727H3.27273V12H5.45455V8.72727H8.72727V6.54545M15.2727 8.72727C16.43 8.72727 17.5399 8.26753 18.3583 7.44919C19.1766 6.63085 19.6364 5.52095 19.6364 4.36364C19.6364 3.20633 19.1766 2.09642 18.3583 1.27808C17.5399 0.459739 16.43 0 15.2727 0C14.1154 0 13.0055 0.459739 12.1872 1.27808C11.3688 2.09642 10.9091 3.20633 10.9091 4.36364C10.9091 5.52095 11.3688 6.63085 12.1872 7.44919C13.0055 8.26753 14.1154 8.72727 15.2727 8.72727Z" fill="white"/>
</svg>
