<svg width="60" height="60" viewBox="0 0 60 60" fill="none" xmlns="http://www.w3.org/2000/svg">
<path d="M45.7501 14.275C45.5188 14.0433 45.2441 13.8594 44.9416 13.7339C44.6392 13.6085 44.315 13.5439 43.9876 13.5439C43.6601 13.5439 43.3359 13.6085 43.0335 13.7339C42.7311 13.8594 42.4563 14.0433 42.2251 14.275L30.0001 26.475L17.7751 14.25C17.5436 14.0186 17.2688 13.835 16.9664 13.7097C16.664 13.5844 16.3399 13.52 16.0126 13.52C15.6852 13.52 15.3611 13.5844 15.0587 13.7097C14.7563 13.835 14.4815 14.0186 14.2501 14.25C14.0186 14.4815 13.835 14.7562 13.7098 15.0587C13.5845 15.3611 13.52 15.6852 13.52 16.0125C13.52 16.3398 13.5845 16.664 13.7098 16.9664C13.835 17.2688 14.0186 17.5436 14.2501 17.775L26.4751 30L14.2501 42.225C14.0186 42.4565 13.835 42.7312 13.7098 43.0336C13.5845 43.3361 13.52 43.6602 13.52 43.9875C13.52 44.3148 13.5845 44.639 13.7098 44.9414C13.835 45.2438 14.0186 45.5185 14.2501 45.75C14.4815 45.9815 14.7563 46.1651 15.0587 46.2903C15.3611 46.4156 15.6852 46.4801 16.0126 46.4801C16.3399 46.4801 16.664 46.4156 16.9664 46.2903C17.2688 46.1651 17.5436 45.9815 17.7751 45.75L30.0001 33.525L42.2251 45.75C42.4565 45.9815 42.7313 46.1651 43.0337 46.2903C43.3361 46.4156 43.6602 46.4801 43.9876 46.4801C44.3149 46.4801 44.639 46.4156 44.9414 46.2903C45.2438 46.1651 45.5186 45.9815 45.7501 45.75C45.9815 45.5185 46.1651 45.2438 46.2904 44.9414C46.4156 44.639 46.4801 44.3148 46.4801 43.9875C46.4801 43.6602 46.4156 43.3361 46.2904 43.0336C46.1651 42.7312 45.9815 42.4565 45.7501 42.225L33.5251 30L45.7501 17.775C46.7001 16.825 46.7001 15.225 45.7501 14.275Z" fill="white"/>
</svg>
