<svg width="215" height="215" viewBox="0 0 215 215" fill="none" xmlns="http://www.w3.org/2000/svg">
<circle cx="107.5" cy="107.5" r="107.5" fill="#FF6E6C"/>
<path d="M96.4977 184C86.8945 184 79.1096 176.171 79.1096 166.514V137.89H50.2462C40.7214 137.89 33 130.105 33 120.502L33 96.5936C33 86.9904 40.7214 79.2055 50.2462 79.2055L79.1096 79.2055V48.4857C79.1096 38.8286 86.8945 31 96.4977 31H120.406C130.01 31 137.795 38.8286 137.795 48.4857V79.2055L166.658 79.2055C176.183 79.2055 183.904 86.9904 183.904 96.5936V120.502C183.904 130.105 176.183 137.89 166.658 137.89H137.795V166.514C137.795 176.171 130.01 184 120.406 184H96.4977Z" fill="white"/>
<path d="M96.4977 184C86.8945 184 79.1096 176.171 79.1096 166.514V137.89H50.2462C40.7214 137.89 33 130.105 33 120.502L33 96.5936C33 86.9904 40.7214 79.2055 50.2462 79.2055L79.1096 79.2055V48.4857C79.1096 38.8286 86.8945 31 96.4977 31H120.406C130.01 31 137.795 38.8286 137.795 48.4857V79.2055L166.658 79.2055C176.183 79.2055 183.904 86.9904 183.904 96.5936V120.502C183.904 130.105 176.183 137.89 166.658 137.89H137.795V166.514C137.795 176.171 130.01 184 120.406 184H96.4977Z" stroke="white"/>
</svg>
